<svg width="120" height="120" viewBox="0 0 120 120" fill="none" xmlns="http://www.w3.org/2000/svg">
<rect width="120" height="120" rx="60" fill="#BEE8C0"/>
<path d="M60 92.5C77.9495 92.5 92.5 77.9495 92.5 60C92.5 42.0508 77.9495 27.5 60 27.5C42.0508 27.5 27.5 42.0508 27.5 60C27.5 77.9495 42.0508 92.5 60 92.5Z" stroke="#1B5E20" stroke-width="2" stroke-linecap="round" stroke-linejoin="round"/>
<path d="M52.5 75H67.5" stroke="#1B5E20" stroke-width="2" stroke-linecap="round" stroke-linejoin="round"/>
<path d="M60 75V57.5H55" stroke="#1B5E20" stroke-width="2" stroke-linecap="round" stroke-linejoin="round"/>
<path d="M60 46.2501C59.3096 46.2501 58.75 45.6905 58.75 45.0001C58.75 44.3098 59.3096 43.7501 60 43.7501" stroke="#1B5E20" stroke-width="2" stroke-linecap="round" stroke-linejoin="round"/>
<path d="M60 46.2501C60.6904 46.2501 61.25 45.6905 61.25 45.0001C61.25 44.3098 60.6904 43.7501 60 43.7501" stroke="#1B5E20" stroke-width="2" stroke-linecap="round" stroke-linejoin="round"/>
</svg>
