<svg width="120" height="120" viewBox="0 0 120 120" fill="none" xmlns="http://www.w3.org/2000/svg">
<rect width="120" height="120" rx="60" fill="#FFC4C4"/>
<path d="M60.054 51.0417V63.0417M60.054 75.0417H60.084M89.244 78.0417L65.244 36.0417C64.7207 35.1183 63.9618 34.3503 63.0448 33.8159C62.1277 33.2815 61.0854 33 60.024 33C58.9626 33 57.9203 33.2815 57.0032 33.8159C56.0862 34.3503 55.3273 35.1183 54.804 36.0417L30.804 78.0417C30.275 78.9578 29.9977 79.9974 30 81.0552C30.0024 82.113 30.2843 83.1514 30.8173 84.0652C31.3503 84.9789 32.1154 85.7354 33.0351 86.2582C33.9547 86.7809 34.9962 87.0512 36.054 87.0417H84.054C85.1067 87.0406 86.1406 86.7626 87.0518 86.2355C87.9631 85.7085 88.7196 84.951 89.2455 84.039C89.7714 83.1271 90.0481 82.0929 90.0478 81.0402C90.0476 79.9875 89.7703 78.9534 89.244 78.0417Z" stroke="#D21D1D" stroke-width="4" stroke-linecap="round" stroke-linejoin="round"/>
</svg>
